<svg width="32" height="32" viewBox="0 0 32 32" fill="none" xmlns="http://www.w3.org/2000/svg">
<g clip-path="url(#clip0_595_1098)">
<mask id="mask0_595_1098" style="mask-type:luminance" maskUnits="userSpaceOnUse" x="0" y="0" width="32" height="32">
<path d="M0 0H32V32H0V0Z" fill="white"/>
</mask>
<g mask="url(#mask0_595_1098)">
<path d="M17.6667 4.00003C10.88 3.81336 5.32003 9.25336 5.32003 16.0001H2.93336C2.33336 16.0001 2.04003 16.7201 2.46669 17.1334L6.18669 20.8667C6.45336 21.1334 6.86669 21.1334 7.13336 20.8667L10.8534 17.1334C11.28 16.7201 10.9734 16.0001 10.3867 16.0001H7.98669C7.98669 10.8 12.2267 6.60003 17.4533 6.66669C22.4133 6.73336 26.5867 10.9067 26.6533 15.8667C26.72 21.0801 22.52 25.3334 17.32 25.3334C15.1733 25.3334 13.1867 24.6001 11.6134 23.3601C11.08 22.9467 10.3334 22.9867 9.85336 23.4667C9.29336 24.0401 9.33336 24.9734 9.96003 25.4667C11.9867 27.0534 14.5467 28.0001 17.32 28.0001C24.0533 28.0001 29.5067 22.4401 29.32 15.6534C29.1467 9.40003 23.92 4.17336 17.6667 4.00003ZM16.9867 10.6667C16.44 10.6667 15.9867 11.12 15.9867 11.6667V16.5734C15.9867 17.0401 16.24 17.4801 16.64 17.7201L20.8 20.1867C21.28 20.4667 21.8933 20.3067 22.1733 19.8401C22.4533 19.3601 22.2933 18.7467 21.8267 18.4667L17.9867 16.1867V11.6534C17.9867 11.12 17.5467 10.6667 16.9867 10.6667Z" fill="#F1993F"/>
</g>
</g>
<defs>
<clipPath id="clip0_595_1098">
<rect width="32" height="32" fill="white"/>
</clipPath>
</defs>
</svg>
