<svg width="11" height="11" viewBox="0 0 11 11" fill="none" xmlns="http://www.w3.org/2000/svg">
<g style="mix-blend-mode:luminosity">
<path d="M0.879041 5.83731C0.49892 5.83731 0.180109 5.52463 0.180109 5.13837C0.180109 4.75212 0.49892 4.43944 0.879041 4.43944H4.61894V0.699543C4.61894 0.319422 4.93162 0.000611369 5.31787 0.000611369C5.70412 0.000611369 6.0168 0.319422 6.0168 0.699543V4.43944H9.7567C10.1368 4.43944 10.4556 4.75212 10.4556 5.13837C10.4556 5.52463 10.1368 5.83731 9.7567 5.83731H6.0168V9.5772C6.0168 9.95732 5.70412 10.2761 5.31787 10.2761C4.93162 10.2761 4.61894 9.95732 4.61894 9.5772V5.83731H0.879041Z" fill="#797979"/>
</g>
</svg>
