<svg width="23" height="23" viewBox="0 0 23 23" fill="none" xmlns="http://www.w3.org/2000/svg">
<g style="mix-blend-mode:luminosity">
<path d="M7.50608 11.0886C7.51221 10.8801 7.58578 10.7023 7.75132 10.5429L12.5335 5.86497C12.6622 5.73009 12.8339 5.66265 13.0301 5.66265C13.4286 5.66265 13.7413 5.9692 13.7413 6.36771C13.7413 6.5639 13.6616 6.7417 13.5267 6.88272L9.21662 11.0886L13.5267 15.2944C13.6616 15.4293 13.7413 15.6071 13.7413 15.8033C13.7413 16.2079 13.4286 16.5145 13.0301 16.5145C12.8339 16.5145 12.6622 16.447 12.5335 16.3122L7.75132 11.6342C7.58578 11.4748 7.50608 11.297 7.50608 11.0886Z" fill="#797979"/>
</g>
</svg>
