<svg width="32" height="32" viewBox="0 0 32 32" fill="none" xmlns="http://www.w3.org/2000/svg">
<g clip-path="url(#clip0_595_1073)">
<path d="M7.38912 19.777H8.12124V20.9794H7.64124L6.38064 22.2352C6.27397 22.3516 6.11397 22.4097 5.95882 22.4097H5.11518C4.86306 23.2873 4.04367 23.9322 3.08851 23.9322C1.92003 23.9322 0.969727 22.9819 0.969727 21.8085C0.969727 20.64 1.92003 19.6946 3.09336 19.6946C4.04851 19.6946 4.86791 20.3394 5.12003 21.2073H5.71154L6.97215 19.9516C7.07882 19.8352 7.23397 19.777 7.38912 19.777Z" fill="#4BA1A8"/>
<path d="M24.611 12.3729H23.8789V11.1705H24.3589L25.6195 9.91474C25.7262 9.79838 25.8862 9.7402 26.0413 9.7402H26.885C27.1371 8.86262 27.9565 8.21777 28.9116 8.21777C30.085 8.21777 31.0353 9.16808 31.0353 10.3414C31.0353 11.5099 30.085 12.4553 28.9116 12.4553C27.9565 12.4553 27.1371 11.8105 26.885 10.9426H26.2935L25.0328 12.1984C24.9213 12.3147 24.7662 12.3729 24.611 12.3729Z" fill="#4BA1A8"/>
<path d="M25.3674 16.6744H23.874V15.472H25.3674C25.6146 14.7738 26.2789 14.2695 27.0643 14.2695C28.0583 14.2695 28.868 15.0792 28.868 16.0732C28.868 17.072 28.0583 17.8768 27.0643 17.8768C26.2789 17.8768 25.6146 17.3774 25.3674 16.6744Z" fill="#4BA1A8"/>
<path d="M6.63244 15.472H8.12578V16.6744H6.63244C6.38517 17.3774 5.72093 17.8768 4.93547 17.8768C3.94153 17.8768 3.13184 17.072 3.13184 16.0732C3.13184 15.0792 3.94153 14.2695 4.93547 14.2695C5.72093 14.2695 6.38517 14.7738 6.63244 15.472Z" fill="#4BA1A8"/>
<path d="M12.388 3.09336C12.388 4.04851 11.7431 4.86791 10.8655 5.12003V5.71154L12.1261 6.97215C12.2328 7.07882 12.3007 7.23882 12.3007 7.39397V8.12609H11.0983V7.64609L9.84251 6.38548C9.72615 6.27882 9.66312 6.11882 9.66312 5.96367V5.12003C8.79039 4.86791 8.15039 4.04851 8.15039 3.09336C8.15039 1.92003 9.10069 0.969727 10.2643 0.969727C11.4377 0.969727 12.388 1.92003 12.388 3.09336Z" fill="#4BA1A8"/>
<path d="M31.0304 21.8085C31.0304 22.9819 30.0801 23.9322 28.9067 23.9322C27.9516 23.9322 27.1322 23.2873 26.8801 22.4098H26.0364C25.8813 22.4098 25.7261 22.3516 25.6146 22.2352L24.354 20.9794H23.874V19.777H24.6061C24.7613 19.777 24.9164 19.8352 25.028 19.9516L26.2886 21.2073H26.8801C27.1322 20.3346 27.9516 19.6946 28.9067 19.6946C30.0801 19.6898 31.0304 20.6401 31.0304 21.8085Z" fill="#4BA1A8"/>
<path d="M23.8499 28.9067C23.8499 30.0801 22.8996 31.0304 21.7359 31.0304C20.5626 31.0304 19.6123 30.0801 19.6123 28.9067C19.6123 27.9516 20.2572 27.1322 21.1347 26.8801V26.2886L19.8741 25.028C19.7675 24.9213 19.6996 24.7613 19.6996 24.6061V23.874H20.902V24.354L22.1578 25.6146C22.2741 25.7213 22.3372 25.8813 22.3372 26.0364V26.8801C23.2099 27.1322 23.8499 27.9516 23.8499 28.9067Z" fill="#4BA1A8"/>
<path d="M17.8036 27.0643C17.8036 28.0583 16.9939 28.868 15.9999 28.868C15.006 28.868 14.1963 28.0583 14.1963 27.0643C14.1963 26.2837 14.7005 25.6146 15.3987 25.3674V23.874H16.6011V25.3674C17.2993 25.6146 17.8036 26.2789 17.8036 27.0643Z" fill="#4BA1A8"/>
<path d="M23.8499 3.09336C23.8499 4.04851 23.205 4.86791 22.3372 5.12003V5.96367C22.3372 6.11882 22.2693 6.27397 22.1578 6.38548L20.902 7.64609V8.12609H19.6996V7.39397C19.6996 7.23882 19.7675 7.08367 19.8741 6.97215L21.1347 5.71154V5.12003C20.2572 4.86791 19.6123 4.04851 19.6123 3.09336C19.6123 1.92003 20.5626 0.969727 21.7359 0.969727C22.9044 0.969727 23.8499 1.92003 23.8499 3.09336Z" fill="#4BA1A8"/>
<path d="M7.64124 11.1705H8.12124V12.3729H7.38912C7.23397 12.3729 7.07882 12.3147 6.9673 12.1984L5.7067 10.9426H5.11518C4.86306 11.8153 4.04367 12.4553 3.08851 12.4553C1.92003 12.4602 0.969727 11.5099 0.969727 10.3414C0.969727 9.16808 1.92003 8.21777 3.09336 8.21777C4.04851 8.21777 4.86791 8.86262 5.12003 9.7402H5.96367C6.11882 9.7402 6.27397 9.79838 6.38548 9.91474L7.64124 11.1705Z" fill="#4BA1A8"/>
<path d="M17.8036 4.93547C17.8036 5.71608 17.2993 6.38517 16.6011 6.63244V8.12578H15.3987V6.63244C14.7005 6.38517 14.1963 5.72093 14.1963 4.93547C14.1963 3.94153 15.006 3.13184 15.9999 3.13184C16.9939 3.13184 17.8036 3.94638 17.8036 4.93547Z" fill="#4BA1A8"/>
<path d="M12.388 28.9067C12.388 30.0801 11.4377 31.0304 10.2643 31.0304C9.09585 31.0304 8.15039 30.0801 8.15039 28.9067C8.15039 27.9516 8.79524 27.1322 9.66312 26.8801V26.0364C9.66312 25.8813 9.731 25.7261 9.84251 25.6146L11.0983 24.354V23.874H12.3007V24.6061C12.3007 24.7613 12.2328 24.9164 12.1261 25.028L10.8655 26.2886V26.8801C11.7431 27.1322 12.388 27.9516 12.388 28.9067Z" fill="#4BA1A8"/>
<path d="M14.4387 14.293C13.6969 14.293 13.0908 14.899 13.0908 15.6408V15.8687H15.7866V15.6408C15.7866 14.8942 15.1805 14.293 14.4387 14.293Z" fill="#4BA1A8"/>
<path d="M21.6287 9.32812H10.3705C9.79355 9.32812 9.32324 9.79843 9.32324 10.3754V21.6287C9.32324 22.2057 9.79355 22.676 10.3705 22.676H21.6238C22.2008 22.676 22.6711 22.2057 22.6711 21.6287V10.3705C22.6711 9.79358 22.2057 9.32812 21.6287 9.32812ZM16.9887 18.3075C16.9887 18.6372 16.7172 18.9087 16.3875 18.9087C16.0578 18.9087 15.7863 18.6372 15.7863 18.3075V17.0712H13.0905V18.3075C13.0905 18.6372 12.819 18.9087 12.4893 18.9087C12.1596 18.9087 11.8881 18.6372 11.8881 18.3075V15.636C11.8881 14.2299 13.0323 13.0857 14.4384 13.0857C15.8445 13.0857 16.9887 14.2299 16.9887 15.636V18.3075ZM20.1111 18.3075C20.1111 18.6372 19.8396 18.9087 19.5099 18.9087C19.1754 18.9087 18.9087 18.6421 18.9087 18.3075V13.6918C18.9087 13.3621 19.1802 13.0905 19.5099 13.0905C19.8396 13.0905 20.1111 13.3621 20.1111 13.6918V18.3075Z" fill="#4BA1A8"/>
</g>
<defs>
<clipPath id="clip0_595_1073">
<rect width="32" height="32" fill="white"/>
</clipPath>
</defs>
</svg>
