<svg width="25" height="24" viewBox="0 0 25 24" fill="none" xmlns="http://www.w3.org/2000/svg">
<path d="M8.33479 22H16.3348C20.3548 22 21.0748 20.39 21.2848 18.43L22.0348 10.43C22.3048 7.99 21.6048 6 17.3348 6H7.33479C3.06479 6 2.36479 7.99 2.63479 10.43L3.38479 18.43C3.59479 20.39 4.31479 22 8.33479 22Z" stroke="#F1993F" stroke-width="2" stroke-miterlimit="10" stroke-linecap="round" stroke-linejoin="round"/>
<path d="M8.33398 6V5.2C8.33398 3.43 8.33398 2 11.534 2H13.134C16.334 2 16.334 3.43 16.334 5.2V6" stroke="#F1993F" stroke-width="2" stroke-miterlimit="10" stroke-linecap="round" stroke-linejoin="round"/>
<path d="M14.334 13V14C14.334 14.01 14.334 14.01 14.334 14.02C14.334 15.11 14.324 16 12.334 16C10.354 16 10.334 15.12 10.334 14.03V13C10.334 12 10.334 12 11.334 12H13.334C14.334 12 14.334 12 14.334 13Z" stroke="#F1993F" stroke-width="2" stroke-miterlimit="10" stroke-linecap="round" stroke-linejoin="round"/>
<path d="M21.984 11C19.674 12.68 17.034 13.68 14.334 14.02" stroke="#F1993F" stroke-width="2" stroke-miterlimit="10" stroke-linecap="round" stroke-linejoin="round"/>
<path d="M2.95508 11.2695C5.20508 12.8095 7.74508 13.7395 10.3351 14.0295" stroke="#F1993F" stroke-width="2" stroke-miterlimit="10" stroke-linecap="round" stroke-linejoin="round"/>
</svg>
