 <svg
      xmlns="http://www.w3.org/2000/svg"
      width="16"
      height="15"
      viewBox="0 0 16 15"
      fill="none"
    >
      <path
        fill-rule="evenodd"
        clip-rule="evenodd"
        d="M8.00069 8.9149L13.6575 14.5717C14.0481 14.9623 14.6812 14.9623 15.0717 14.5717C15.4623 14.1812 15.4623 13.5481 15.0717 13.1575L9.4149 7.50069L15.0717 1.84384C15.4623 1.45331 15.4623 0.820148 15.0717 0.429624C14.6812 0.0390997 14.0481 0.0391001 13.6575 0.429624L8.00069 6.08647L2.34383 0.429612C1.9533 0.0390877 1.32014 0.0390877 0.929612 0.429612C0.539088 0.820136 0.539088 1.4533 0.929612 1.84383L6.58647 7.50069L0.929612 13.1575C0.539088 13.5481 0.539088 14.1812 0.929612 14.5718C1.32014 14.9623 1.9533 14.9623 2.34383 14.5718L8.00069 8.9149Z"
        fill="#515353"
      />
    </svg>