<svg width="32" height="32" viewBox="0 0 32 32" fill="none" xmlns="http://www.w3.org/2000/svg">
<g clip-path="url(#clip0_595_1063)">
<path d="M31.6631 21.9246L28.6311 18.8923L22.3589 25.1646C21.2393 26.2842 19.834 27.0142 18.3076 27.2874L22.304 31.2837C22.6699 31.6499 23.2637 31.6499 23.6296 31.2837L31.6631 23.2505C32.0293 22.8843 32.0293 22.2905 31.6631 21.9246Z" fill="#F1993F"/>
<path d="M27.3958 17.4758C28.4527 16.4191 28.4529 14.6997 27.3972 13.6423C27.396 13.6411 27.3948 13.6398 27.3936 13.6386C27.1323 13.3776 26.8272 13.1765 26.4949 13.0419C26.783 12.3132 26.8438 11.0808 25.8894 10.1262C25.887 10.1237 25.8845 10.121 25.8819 10.1186C25.6218 9.8603 25.3186 9.66108 24.9885 9.52729C25.2766 8.79902 25.3377 7.56635 24.3838 6.61225C24.3831 6.61151 24.3826 6.61103 24.3821 6.61054C24.1206 6.34906 23.8152 6.1474 23.4824 6.01288C23.7705 5.28412 23.8313 4.05145 22.877 3.09686C22.8767 3.09686 22.8767 3.09662 22.8765 3.09662C22.8762 3.09638 22.876 3.09613 22.8757 3.09589C21.8184 2.03851 20.0982 2.03851 19.0408 3.09589L17.2632 4.87323L18.1721 5.78217C19.6868 7.29682 19.6868 9.76117 18.1724 11.2758C17.6626 11.7853 17.0364 12.1354 16.3538 12.3022C16.1904 12.9677 15.8496 13.5986 15.3303 14.1176C14.8213 14.6267 14.1961 14.9765 13.5142 15.1435C13.3474 15.8251 12.9973 16.4506 12.4885 16.9594C11.9795 17.4685 11.3543 17.8183 10.6724 17.9853C10.5056 18.6669 10.1555 19.2924 9.64674 19.8015C8.91309 20.5349 7.93751 20.9392 6.89991 20.9392C5.86231 20.9392 4.88672 20.5351 4.15308 19.8012L3.24414 18.8923L0.212158 21.9245C-0.154053 22.2907 -0.154053 22.8842 0.212158 23.2504L8.24537 31.2837C8.61158 31.6499 9.20508 31.6496 9.5713 31.2837L15.3218 25.5334H16.9419C18.4873 25.5334 19.9402 24.9314 21.033 23.8388L27.3958 17.4758Z" fill="#F1993F"/>
<path d="M5.47864 18.4756C6.26331 19.2605 7.53577 19.2605 8.32044 18.4756C9.10535 17.6909 9.10535 16.4187 8.32044 15.6338C9.10535 16.4187 10.3776 16.4187 11.1625 15.6338C11.9471 14.8491 11.9471 13.5767 11.1625 12.792C11.9471 13.5767 13.2196 13.5767 14.0043 12.792C14.7889 12.0073 14.7889 10.7349 14.0043 9.9502C14.7889 10.7349 16.0614 10.7349 16.8461 9.9502C17.631 9.16529 17.631 7.89307 16.8461 7.10816L12.8392 3.10132C12.0546 2.31665 10.7821 2.31665 9.99744 3.10132C9.21277 3.88599 9.21277 5.15845 9.99744 5.94312L10.4994 6.44532C9.71473 5.6604 8.44226 5.6604 7.6576 6.44532C6.87293 7.22998 6.87293 8.50245 7.6576 9.28711L8.66175 10.2913C7.87708 9.5066 6.60462 9.5066 5.81995 10.2913C5.03504 11.0759 5.03504 12.3484 5.81995 13.1331L6.8241 14.1375C6.03919 13.3525 4.76697 13.3525 3.98206 14.1375C3.19739 14.9221 3.19739 16.1943 3.98206 16.9793L5.47864 18.4756Z" fill="#F1993F"/>
<path d="M17.7153 1.76998C17.854 1.63131 18.0007 1.50387 18.1533 1.38546L17.605 0.837119C17.3198 0.551719 16.8835 0.481162 16.523 0.661338L14.209 1.81832L15.938 3.54757L17.7153 1.76998Z" fill="#F1993F"/>
</g>
<defs>
<clipPath id="clip0_595_1063">
<rect width="32" height="32" fill="white"/>
</clipPath>
</defs>
</svg>
