<svg width="14" height="14" viewBox="0 0 14 14" fill="none" xmlns="http://www.w3.org/2000/svg">
<g style="mix-blend-mode:luminosity">
<path d="M2.68453 10.8108C1.35411 10.8108 0.667438 10.1303 0.667438 8.81213V2.55853C0.667438 1.2465 1.35411 0.559831 2.68453 0.559831H8.90135C10.2256 0.559831 10.9184 1.2465 10.9184 2.55853V3.47818H11.9607C13.285 3.47818 13.9778 4.16485 13.9778 5.47688V11.7366C13.9778 13.0486 13.285 13.7353 11.9607 13.7353H5.74389C4.4196 13.7353 3.7268 13.0486 3.7268 11.7366V10.8108H2.68453ZM2.76423 9.59077H3.7268V5.47688C3.7268 4.16485 4.4196 3.47818 5.74389 3.47818H9.69837V2.66889C9.69837 2.07418 9.37956 1.78603 8.82164 1.78603H2.76423C2.20018 1.78603 1.8875 2.07418 1.8875 2.66889V8.70177C1.8875 9.29648 2.20018 9.59077 2.76423 9.59077ZM5.82359 12.5091H11.881C12.4451 12.5091 12.7577 12.2148 12.7577 11.6263V5.58724C12.7577 4.99866 12.4451 4.70437 11.881 4.70437H5.82359C5.25954 4.70437 4.95299 4.99866 4.95299 5.58724V11.6263C4.95299 12.2148 5.25954 12.5091 5.82359 12.5091Z" fill="#797979"/>
</g>
</svg>
