<svg width="25" height="24" viewBox="0 0 25 24" fill="none" xmlns="http://www.w3.org/2000/svg">
<path d="M9.33789 14.3298C9.33789 15.6198 10.3279 16.6598 11.5579 16.6598H14.0679C15.1379 16.6598 16.0079 15.7498 16.0079 14.6298C16.0079 13.4098 15.4779 12.9798 14.6879 12.6998L10.6579 11.2998C9.86789 11.0198 9.33789 10.5898 9.33789 9.36984C9.33789 8.24984 10.2079 7.33984 11.2779 7.33984H13.7879C15.0179 7.33984 16.0079 8.37984 16.0079 9.66984" stroke="#4BA1A8" stroke-width="2" stroke-linecap="round" stroke-linejoin="round"/>
<path d="M12.666 6V18" stroke="#4BA1A8" stroke-width="2" stroke-linecap="round" stroke-linejoin="round"/>
<path d="M12.666 22C18.1889 22 22.666 17.5228 22.666 12C22.666 6.47715 18.1889 2 12.666 2C7.14317 2 2.66602 6.47715 2.66602 12C2.66602 17.5228 7.14317 22 12.666 22Z" stroke="#4BA1A8" stroke-width="2" stroke-linecap="round" stroke-linejoin="round"/>
</svg>
