<svg xmlns="http://www.w3.org/2000/svg" width="18" height="18" viewBox="0 0 18 18" fill="none">
  <path d="M9.15259 9.95459C9.55615 9.95459 9.8833 9.62744 9.8833 9.22388C9.8833 8.82032 9.55615 8.49316 9.15259 8.49316C8.74903 8.49316 8.42188 8.82032 8.42188 9.22388C8.42188 9.62744 8.74903 9.95459 9.15259 9.95459Z" stroke="#748586" stroke-width="1.75371" stroke-linecap="round" stroke-linejoin="round"/>
  <path d="M14.2698 9.95459C14.6733 9.95459 15.0005 9.62744 15.0005 9.22388C15.0005 8.82032 14.6733 8.49316 14.2698 8.49316C13.8662 8.49316 13.5391 8.82032 13.5391 9.22388C13.5391 9.62744 13.8662 9.95459 14.2698 9.95459Z" stroke="#748586" stroke-width="1.75371" stroke-linecap="round" stroke-linejoin="round"/>
  <path d="M4.0354 9.95459C4.43896 9.95459 4.76611 9.62744 4.76611 9.22388C4.76611 8.82032 4.43896 8.49316 4.0354 8.49316C3.63184 8.49316 3.30469 8.82032 3.30469 9.22388C3.30469 9.62744 3.63184 9.95459 4.0354 9.95459Z" stroke="#748586" stroke-width="1.75371" stroke-linecap="round" stroke-linejoin="round"/>
</svg>