<svg xmlns="http://www.w3.org/2000/svg" width="15" height="14" viewBox="0 0 15 14" fill="none">
<g clip-path="url(#clip0_595_1753)">
<path d="M7.70498 0.0253906C3.85283 0.0253906 0.72998 3.14824 0.72998 7.00039C0.72998 10.2714 2.98207 13.0162 6.0201 13.77V9.13195H4.58185V7.00039H6.0201V6.08192C6.0201 3.70791 7.09453 2.60754 9.42529 2.60754C9.86723 2.60754 10.6297 2.6943 10.9417 2.78079V4.71287C10.777 4.69557 10.4911 4.68692 10.1359 4.68692C8.99229 4.68692 8.55035 5.12021 8.55035 6.24653V7.00039H10.8287L10.4372 9.13195H8.55035V13.9243C12.0041 13.5072 14.6803 10.5666 14.6803 7.00039C14.68 3.14824 11.5571 0.0253906 7.70498 0.0253906Z" fill="white"/>
</g>
<defs>
<clipPath id="clip0_595_1753">
<rect width="13.95" height="13.95" fill="white" transform="translate(0.72998 0.0253906)"/>
</clipPath>
</defs>
</svg>