<svg width="190" height="43" viewBox="0 0 190 43" fill="none" xmlns="http://www.w3.org/2000/svg">
<g clip-path="url(#clip0_250_18400)">
<path d="M21.1269 11.9165L4.43837 0.873047C3.21603 1.64467 2.21136 2.72219 1.52156 4.00136C0.831768 5.28053 0.480196 6.71804 0.500861 8.17481V25.567L21.1269 11.9165Z" fill="white"/>
<path d="M21.1268 11.916L0.500822 25.5666C0.480641 27.0239 0.832387 28.4618 1.5221 29.7415C2.21182 31.0213 3.21622 32.0996 4.43833 32.8725L10.8118 37.0225L16.4753 40.7064C17.8537 41.6324 19.4719 42.1263 21.1268 42.1263C22.7818 42.1263 24.3999 41.6324 25.7784 40.7064L31.4419 37.0225L37.8112 32.8725C39.0347 32.1007 40.0403 31.0227 40.7308 29.7428C41.4213 28.4629 41.7734 27.0244 41.7528 25.5666L21.1268 11.916Z" fill="white"/>
<path d="M21.125 11.9165L41.751 25.567V8.17481C41.7716 6.71757 41.4196 5.27965 40.729 4.00038C40.0385 2.72111 39.0328 1.64387 37.8094 0.873047L21.125 11.9165Z" fill="white"/>
</g>
<path d="M59.632 24.7225V37.8969H53.7539V14.852H55.1722L57.1151 17.0901C58.0607 16.2265 59.1319 15.5625 60.3288 15.0979C61.5257 14.6279 62.7773 14.3929 64.0835 14.3929C65.4882 14.3929 66.8163 14.6634 68.0678 15.2045C69.314 15.7401 70.4043 16.478 71.3389 17.418C72.268 18.3581 73.0031 19.4566 73.5442 20.7137C74.0798 21.9707 74.3476 23.307 74.3476 24.7225V37.8969H68.4777V24.7225C68.4777 24.1213 68.363 23.5529 68.1334 23.0173C67.9039 22.4763 67.5869 22.0062 67.1824 21.6072C66.7835 21.2028 66.3162 20.8858 65.7806 20.6563C65.2504 20.4267 64.6847 20.3119 64.0835 20.3119C63.466 20.3119 62.8839 20.4267 62.3373 20.6563C61.7963 20.8858 61.3235 21.2028 60.9191 21.6072C60.5201 22.0062 60.2058 22.4763 59.9763 23.0173C59.7467 23.5529 59.632 24.1213 59.632 24.7225ZM85.4561 8.58863C85.4561 9.1297 85.3522 9.63799 85.1445 10.1135C84.9368 10.589 84.6526 11.0016 84.2919 11.3514C83.9312 11.7012 83.5104 11.9799 83.0294 12.1876C82.5485 12.3953 82.0374 12.4991 81.4964 12.4991C80.9498 12.4991 80.4361 12.3953 79.9551 12.1876C79.4742 11.9799 79.0588 11.7012 78.709 11.3514C78.3537 11.0016 78.0723 10.589 77.8646 10.1135C77.6569 9.63799 77.5531 9.1297 77.5531 8.58863C77.5531 8.05848 77.6569 7.55293 77.8646 7.07197C78.0723 6.59102 78.3537 6.17291 78.709 5.81766C79.0588 5.46787 79.4742 5.18913 79.9551 4.98145C80.4361 4.77376 80.9498 4.66992 81.4964 4.66992C82.0374 4.66992 82.5485 4.77376 83.0294 4.98145C83.5104 5.18913 83.9312 5.46787 84.2919 5.81766C84.6526 6.17291 84.9368 6.59102 85.1445 7.07197C85.3522 7.55293 85.4561 8.05848 85.4561 8.58863ZM84.4395 14.852V37.8969H78.5204V14.852H84.4395ZM111.985 26.1654C111.985 27.9745 111.679 29.625 111.067 31.1171C110.449 32.6091 109.608 33.8908 108.542 34.962C107.482 36.0278 106.238 36.8558 104.812 37.446C103.385 38.0363 101.855 38.3314 100.221 38.3314C98.5977 38.3314 97.0728 38.0281 95.6463 37.4214C94.2199 36.8202 92.971 35.9813 91.8998 34.9046C90.8286 33.8279 89.9869 32.549 89.3748 31.0679C88.7572 29.5813 88.4484 27.9471 88.4484 26.1654V5.67829H94.3428V16.4424C94.6598 16.038 95.0424 15.68 95.4906 15.3685C95.9442 15.0515 96.4333 14.7919 96.958 14.5897C97.4827 14.3874 98.0238 14.2344 98.5813 14.1306C99.1387 14.0212 99.6853 13.9666 100.221 13.9666C101.855 13.9666 103.385 14.2699 104.812 14.8766C106.238 15.4887 107.482 16.3413 108.542 17.4344C109.608 18.522 110.449 19.8091 111.067 21.2957C111.679 22.7768 111.985 24.4001 111.985 26.1654ZM106.074 26.1654C106.074 25.28 105.919 24.452 105.607 23.6814C105.301 22.9162 104.883 22.2522 104.353 21.6892C103.817 21.1318 103.194 20.6945 102.484 20.3775C101.779 20.0605 101.024 19.902 100.221 19.902C99.4175 19.902 98.6605 20.0797 97.95 20.4349C97.2395 20.7847 96.6192 21.2493 96.089 21.8286C95.5534 22.4134 95.1353 23.0829 94.8347 23.8371C94.5341 24.5859 94.3838 25.362 94.3838 26.1654C94.3838 27.0563 94.5341 27.8815 94.8347 28.6412C95.1353 29.4009 95.5534 30.0623 96.089 30.6252C96.6192 31.1827 97.2395 31.6226 97.95 31.9451C98.6605 32.2675 99.4175 32.4288 100.221 32.4288C101.024 32.4288 101.779 32.2675 102.484 31.9451C103.194 31.6226 103.817 31.1827 104.353 30.6252C104.883 30.0623 105.301 29.4009 105.607 28.6412C105.919 27.8815 106.074 27.0563 106.074 26.1654Z" fill="white"/>
<path d="M120.321 24.722V37.8964H114.443V14.8514H115.862L117.805 17.0895C118.75 16.226 119.821 15.5619 121.018 15.0974C122.215 14.6274 123.467 14.3923 124.773 14.3923C126.178 14.3923 127.506 14.6629 128.757 15.204C130.003 15.7396 131.094 16.4774 132.028 17.4175C132.957 18.3575 133.693 19.4561 134.234 20.7131C134.769 21.9701 135.037 23.3064 135.037 24.722V37.8964H129.167V24.722C129.167 24.1208 129.052 23.5524 128.823 23.0168C128.593 22.4757 128.276 22.0057 127.872 21.6067C127.473 21.2023 127.006 20.8853 126.47 20.6557C125.94 20.4262 125.374 20.3114 124.773 20.3114C124.155 20.3114 123.573 20.4262 123.027 20.6557C122.486 20.8853 122.013 21.2023 121.609 21.6067C121.21 22.0057 120.895 22.4757 120.666 23.0168C120.436 23.5524 120.321 24.1208 120.321 24.722ZM161.533 14.8924V37.8964H160.107L157.828 34.7319C157.27 35.2347 156.68 35.7047 156.057 36.142C155.429 36.5792 154.77 36.959 154.081 37.2815C153.393 37.604 152.688 37.8581 151.966 38.0439C151.239 38.2352 150.504 38.3309 149.761 38.3309C148.138 38.3309 146.613 38.0576 145.186 37.5111C143.76 36.9645 142.511 36.172 141.44 35.1336C140.374 34.0897 139.532 32.8163 138.915 31.3133C138.297 29.8048 137.988 28.0887 137.988 26.1649C137.988 24.3722 138.297 22.7271 138.915 21.2296C139.532 19.7321 140.374 18.4449 141.44 17.3683C142.511 16.2916 143.76 15.4554 145.186 14.8596C146.613 14.2639 148.138 13.966 149.761 13.966C150.504 13.966 151.242 14.059 151.974 14.2448C152.707 14.4306 153.417 14.6902 154.106 15.0236C154.795 15.3515 155.45 15.7368 156.073 16.1795C156.697 16.6277 157.281 17.1087 157.828 17.6224L160.107 14.8924H161.533ZM155.614 26.1649C155.614 25.3614 155.459 24.5853 155.147 23.8366C154.841 23.0824 154.423 22.4128 153.893 21.828C153.363 21.2487 152.742 20.7841 152.032 20.4344C151.321 20.0791 150.564 19.9015 149.761 19.9015C148.957 19.9015 148.201 20.0381 147.49 20.3114C146.78 20.5847 146.162 20.9864 145.637 21.5165C145.113 22.0467 144.7 22.7052 144.399 23.4923C144.099 24.2738 143.948 25.1647 143.948 26.1649C143.948 27.1705 144.099 28.0641 144.399 28.8456C144.7 29.6272 145.113 30.283 145.637 30.8132C146.162 31.3433 146.78 31.745 147.49 32.0183C148.201 32.2916 148.957 32.4282 149.761 32.4282C150.564 32.4282 151.321 32.2533 152.032 31.9035C152.742 31.5538 153.363 31.0865 153.893 30.5017C154.423 29.9223 154.841 29.2555 155.147 28.5013C155.459 27.7471 155.614 26.9683 155.614 26.1649ZM189.079 26.1649C189.079 27.9739 188.77 29.6245 188.153 31.1165C187.535 32.6086 186.696 33.8902 185.636 34.9614C184.576 36.0272 183.329 36.8552 181.898 37.4455C180.471 38.0357 178.941 38.3309 177.307 38.3309C175.683 38.3309 174.159 38.0275 172.732 37.4209C171.306 36.8197 170.057 35.9807 168.985 34.9041C167.92 33.8274 167.078 32.5485 166.46 31.0673C165.843 29.5807 165.534 27.9466 165.534 26.1649V5.67773H171.429V16.4419C171.746 16.0374 172.131 15.6794 172.584 15.3679C173.033 15.0509 173.519 14.7913 174.044 14.5891C174.568 14.3869 175.11 14.2338 175.667 14.13C176.23 14.0207 176.776 13.966 177.307 13.966C178.941 13.966 180.471 14.2694 181.898 14.876C183.329 15.4882 184.576 16.3408 185.636 17.4338C186.696 18.5215 187.535 19.8086 188.153 21.2952C188.77 22.7763 189.079 24.3995 189.079 26.1649ZM183.16 26.1649C183.16 25.2795 183.004 24.4514 182.693 23.6808C182.387 22.9157 181.969 22.2516 181.438 21.6887C180.908 21.1312 180.288 20.694 179.577 20.377C178.867 20.06 178.11 19.9015 177.307 19.9015C176.503 19.9015 175.746 20.0791 175.036 20.4344C174.325 20.7841 173.705 21.2487 173.175 21.828C172.645 22.4128 172.229 23.0824 171.929 23.8366C171.623 24.5853 171.47 25.3614 171.47 26.1649C171.47 27.0557 171.623 27.881 171.929 28.6407C172.229 29.4004 172.645 30.0617 173.175 30.6246C173.705 31.1821 174.325 31.6221 175.036 31.9445C175.746 32.267 176.503 32.4282 177.307 32.4282C178.11 32.4282 178.867 32.267 179.577 31.9445C180.288 31.6221 180.908 31.1821 181.438 30.6246C181.969 30.0617 182.387 29.4004 182.693 28.6407C183.004 27.881 183.16 27.0557 183.16 26.1649Z" fill="white"/>
<defs>
<clipPath id="clip0_250_18400">
<rect width="41.2537" height="41.2537" fill="white" transform="translate(0.5 0.873047)"/>
</clipPath>
</defs>
</svg>
