<svg width="25" height="24" viewBox="0 0 25 24" fill="none" xmlns="http://www.w3.org/2000/svg">
<path d="M9.4912 20.7714V17.7047C9.49118 16.9246 10.1271 16.2908 10.915 16.2856H13.8011C14.5927 16.2856 15.2345 16.9209 15.2345 17.7047V17.7047V20.7809C15.2343 21.4432 15.7682 21.9845 16.437 22H18.3611C20.2791 22 21.834 20.4607 21.834 18.5618V18.5618V9.83784C21.8237 9.09083 21.4695 8.38935 20.872 7.93303L14.2917 2.6853C13.1389 1.77157 11.5002 1.77157 10.3474 2.6853L3.79601 7.94256C3.19624 8.39702 2.84137 9.09967 2.83398 9.84736V18.5618C2.83398 20.4607 4.38886 22 6.3069 22H8.23095C8.91634 22 9.47196 21.4499 9.47196 20.7714V20.7714" stroke="#4BA1A8" stroke-width="2" stroke-linecap="round" stroke-linejoin="round"/>
</svg>
