<svg width="21" height="20" viewBox="0 0 21 20" fill="none" xmlns="http://www.w3.org/2000/svg">
<path fill-rule="evenodd" clip-rule="evenodd" d="M18.1748 6.58283V13.3753C18.1748 15.892 16.5998 17.667 14.0832 17.667H6.87484C4.35817 17.667 2.7915 15.892 2.7915 13.3753V6.58283C2.7915 4.06616 4.3665 2.29199 6.87484 2.29199H14.0832C16.5998 2.29199 18.1748 4.06616 18.1748 6.58283Z" stroke="#444F4F" stroke-width="1.5" stroke-linecap="round" stroke-linejoin="round"/>
<path d="M4.90088 13.6924L6.17421 12.3483C6.61671 11.8791 7.35421 11.8566 7.82421 12.2983C7.83838 12.3124 8.60505 13.0916 8.60505 13.0916C9.06755 13.5624 9.82338 13.5699 10.2942 13.1083C10.325 13.0783 12.2392 10.7566 12.2392 10.7566C12.7325 10.1574 13.6184 10.0716 14.2184 10.5658C14.2584 10.5991 16.0667 12.4549 16.0667 12.4549" stroke="#444F4F" stroke-width="1.5" stroke-linecap="round" stroke-linejoin="round"/>
<path fill-rule="evenodd" clip-rule="evenodd" d="M9.09374 7.61108C9.09374 8.41858 8.43958 9.07275 7.63208 9.07275C6.82458 9.07275 6.17041 8.41858 6.17041 7.61108C6.17041 6.80358 6.82458 6.14941 7.63208 6.14941C8.43958 6.15025 9.09374 6.80358 9.09374 7.61108Z" stroke="#444F4F" stroke-width="1.5" stroke-linecap="round" stroke-linejoin="round"/>
</svg>
