<svg width="32" height="32" viewBox="0 0 32 32" fill="none" xmlns="http://www.w3.org/2000/svg">
<g clip-path="url(#clip0_595_1055)">
<path d="M23.9647 8.01971C22.8026 8.01203 21.6529 8.25817 20.5958 8.74093C19.5388 9.2237 18.5999 9.93143 17.8447 10.8147L16.6597 12.1797L19.3047 15.2347L20.8647 13.4347C21.2476 12.9878 21.7233 12.6297 22.2586 12.3853C22.794 12.1409 23.3762 12.0162 23.9647 12.0197C24.4927 12.0113 25.017 12.1081 25.5072 12.3044C25.9974 12.5006 26.4437 12.7924 26.82 13.1628C27.1963 13.5333 27.4952 13.9748 27.6992 14.4619C27.9032 14.9489 28.0083 15.4717 28.0083 15.9997C28.0083 16.5277 27.9032 17.0505 27.6992 17.5375C27.4952 18.0246 27.1963 18.4662 26.82 18.8366C26.4437 19.207 25.9974 19.4988 25.5072 19.6951C25.017 19.8913 24.4927 19.9881 23.9647 19.9797C23.3781 19.9836 22.7977 19.8594 22.264 19.6159C21.7303 19.3724 21.2562 19.0153 20.8747 18.5697C15.0817 11.8807 17.8342 15.0697 14.1547 10.8097C13.3985 9.92797 12.4593 9.22161 11.4024 8.73978C10.3455 8.25795 9.19623 8.01223 8.03469 8.01971C5.91826 8.01971 3.88852 8.86045 2.39198 10.357C0.895435 11.8535 0.0546875 13.8833 0.0546875 15.9997C0.0546875 18.1161 0.895435 20.1459 2.39198 21.6424C3.88852 23.139 5.91826 23.9797 8.03469 23.9797C9.19675 23.9874 10.3465 23.7412 11.4035 23.2585C12.4606 22.7757 13.3995 22.068 14.1547 21.1847L15.3397 19.8197L12.6947 16.7647L11.1347 18.5647C10.7518 19.0116 10.2761 19.3697 9.74075 19.6141C9.20538 19.8585 8.62318 19.9832 8.03469 19.9797C7.50672 19.9881 6.98236 19.8913 6.49215 19.6951C6.00194 19.4988 5.55568 19.207 5.17935 18.8366C4.80303 18.4662 4.50416 18.0246 4.30016 17.5375C4.09616 17.0505 3.9911 16.5277 3.9911 15.9997C3.9911 15.4717 4.09616 14.9489 4.30016 14.4619C4.50416 13.9748 4.80303 13.5333 5.17935 13.1628C5.55568 12.7924 6.00194 12.5006 6.49215 12.3044C6.98236 12.1081 7.50672 12.0113 8.03469 12.0197C8.6213 12.0158 9.20169 12.14 9.73538 12.3835C10.2691 12.627 10.7432 12.9841 11.1247 13.4297C16.9177 20.1187 14.1652 16.9297 17.8447 21.1897C18.7118 22.2226 19.8254 23.02 21.0826 23.5081C22.3397 23.9963 23.6997 24.1594 25.0366 23.9823C26.3735 23.8052 27.6441 23.2937 28.7308 22.4951C29.8176 21.6966 30.6852 20.6367 31.2535 19.4137C31.8219 18.1908 32.0724 16.8442 31.9821 15.4986C31.8917 14.1531 31.4634 12.852 30.7366 11.716C30.0099 10.58 29.0083 9.64569 27.8246 8.99958C26.6409 8.35346 25.3133 8.01644 23.9647 8.01971Z" fill="#DC463B"/>
</g>
<defs>
<clipPath id="clip0_595_1055">
<rect width="32" height="32" fill="white"/>
</clipPath>
</defs>
</svg>
