<svg xmlns="http://www.w3.org/2000/svg" width="15" height="14" viewBox="0 0 15 14" fill="none">
  <path d="M14.6407 4.12393C14.6073 3.38128 14.4873 2.87315 14.3171 2.42923C14.1385 1.97136 13.9013 1.58049 13.5135 1.19521C13.1256 0.80992 12.7378 0.567023 12.2802 0.391132C11.8366 0.218033 11.3287 0.100773 10.5865 0.0672694C9.84153 0.0337664 9.60436 0.0253906 7.71257 0.0253906C5.81799 0.0253906 5.58082 0.0337664 4.83862 0.0672694C4.09641 0.100773 3.58859 0.220825 3.14494 0.391132C2.68455 0.569815 2.29391 0.807128 1.90886 1.19521C1.52381 1.58328 1.28105 1.97136 1.10527 2.42923C0.935063 2.87315 0.815083 3.38128 0.7816 4.12393C0.748117 4.86937 0.739746 5.10669 0.739746 6.99961C0.739746 8.89532 0.748117 9.13264 0.7816 9.87529C0.815083 10.6179 0.935063 11.1261 1.10527 11.57C1.28384 12.0279 1.52101 12.4187 1.90886 12.804C2.29391 13.1921 2.68455 13.4322 3.14215 13.6081C3.5858 13.7812 4.09362 13.8984 4.83583 13.9319C5.58082 13.9655 5.81799 13.9738 7.70978 13.9738C9.60436 13.9738 9.84153 13.9655 10.5837 13.9319C11.3259 13.8984 11.8338 13.7784 12.2774 13.6081C12.735 13.4294 13.1256 13.1921 13.5107 12.804C13.8958 12.4159 14.1385 12.0279 14.3143 11.57C14.4873 11.1261 14.6045 10.6179 14.638 9.87529C14.6714 9.12985 14.6798 8.89253 14.6798 6.99961C14.6798 5.10669 14.6742 4.86658 14.6407 4.12393ZM13.3879 9.81945C13.3572 10.5007 13.2428 10.872 13.148 11.1149C13.0224 11.4388 12.8689 11.6733 12.6234 11.919C12.3779 12.1647 12.1463 12.3126 11.8198 12.4439C11.5743 12.5388 11.2032 12.6532 10.5251 12.684C9.7913 12.7175 9.57087 12.7258 7.70699 12.7258C5.8431 12.7258 5.62268 12.7175 4.88884 12.684C4.20802 12.6532 3.83692 12.5388 3.59417 12.4439C3.2705 12.3182 3.03612 12.1647 2.79058 11.919C2.54503 11.6733 2.39715 11.4416 2.26601 11.1149C2.17114 10.8692 2.05674 10.4979 2.02605 9.81945C1.99257 9.08517 1.9842 8.86461 1.9842 6.99961C1.9842 5.13461 1.99257 4.91404 2.02605 4.17977C2.05674 3.49854 2.17114 3.12722 2.26601 2.88432C2.39157 2.56046 2.54503 2.32593 2.79058 2.08024C3.03612 1.83456 3.26771 1.68658 3.59417 1.55536C3.83971 1.46044 4.21081 1.34597 4.88884 1.31526C5.62268 1.28176 5.8431 1.27338 7.70699 1.27338C9.57087 1.27338 9.7913 1.28176 10.5251 1.31526C11.206 1.34597 11.5771 1.46044 11.8198 1.55536C12.1435 1.681 12.3779 1.83456 12.6234 2.08024C12.8689 2.32593 13.0168 2.55766 13.148 2.88432C13.2428 3.13001 13.3572 3.50133 13.3879 4.17977C13.4214 4.91404 13.4298 5.13461 13.4298 6.99961C13.4298 8.86461 13.4186 9.08517 13.3879 9.81945Z" fill="white"/>
  <path d="M7.70865 3.41504C5.72758 3.41504 4.12598 5.02039 4.12598 6.99987C4.12598 8.98213 5.73037 10.5847 7.70865 10.5847C9.68694 10.5847 11.2913 8.97655 11.2913 6.99987C11.2913 5.0176 9.68973 3.41504 7.70865 3.41504ZM7.70865 9.32554C6.42514 9.32554 5.38438 8.28415 5.38438 6.99987C5.38438 5.71558 6.42514 4.6742 7.70865 4.6742C8.99216 4.6742 10.0329 5.71558 10.0329 6.99987C10.0329 8.28415 8.99216 9.32554 7.70865 9.32554Z" fill="white"/>
  <path d="M11.4294 4.11265C11.8917 4.11265 12.2664 3.73766 12.2664 3.27508C12.2664 2.8125 11.8917 2.4375 11.4294 2.4375C10.9671 2.4375 10.5923 2.8125 10.5923 3.27508C10.5923 3.73766 10.9671 4.11265 11.4294 4.11265Z" fill="white"/>
</svg>