<svg width="22" height="22" viewBox="0 0 22 22" fill="none" xmlns="http://www.w3.org/2000/svg">
<path d="M21.8297 6.50748C21.7774 5.34709 21.5899 4.55314 21.324 3.85952C21.0449 3.14409 20.6744 2.53336 20.0683 1.93135C19.4623 1.32934 18.8563 0.949817 18.1413 0.674987C17.4481 0.40452 16.6547 0.2213 15.495 0.168951C14.3309 0.116603 13.9603 0.103516 11.0044 0.103516C8.04413 0.103516 7.67356 0.116603 6.51386 0.168951C5.35416 0.2213 4.56069 0.408882 3.86749 0.674987C3.14813 0.954179 2.53776 1.32498 1.93611 1.93135C1.33447 2.53772 0.955168 3.14409 0.680503 3.85952C0.414558 4.55314 0.227088 5.34709 0.174771 6.50748C0.122454 7.67224 0.109375 8.04304 0.109375 11.0007C0.109375 13.9628 0.122454 14.3336 0.174771 15.494C0.227088 16.6544 0.414558 17.4483 0.680503 18.1419C0.959528 18.8574 1.33011 19.4681 1.93611 20.0701C2.53776 20.6765 3.14813 21.0516 3.86313 21.3265C4.55633 21.5969 5.3498 21.7802 6.5095 21.8325C7.67356 21.8849 8.04414 21.8979 11.0001 21.8979C13.9603 21.8979 14.3309 21.8849 15.4906 21.8325C16.6503 21.7802 17.4438 21.5926 18.137 21.3265C18.852 21.0473 19.4623 20.6765 20.064 20.0701C20.6656 19.4637 21.0449 18.8574 21.3196 18.1419C21.5899 17.4483 21.773 16.6544 21.8253 15.494C21.8776 14.3292 21.8907 13.9584 21.8907 11.0007C21.8907 8.04304 21.882 7.66788 21.8297 6.50748ZM19.8722 15.4067C19.8242 16.4712 19.6455 17.0513 19.4972 17.4309C19.301 17.9369 19.0612 18.3034 18.6776 18.6872C18.2939 19.0711 17.9321 19.3023 17.422 19.5074C17.0383 19.6557 16.4585 19.8345 15.399 19.8825C14.2524 19.9349 13.908 19.948 10.9957 19.948C8.08337 19.948 7.73895 19.9349 6.59234 19.8825C5.52855 19.8345 4.94871 19.6557 4.56941 19.5074C4.06368 19.3111 3.69746 19.0711 3.3138 18.6872C2.93014 18.3034 2.69907 17.9413 2.49416 17.4309C2.34593 17.047 2.16718 16.4668 2.11922 15.4067C2.06691 14.2594 2.05383 13.9148 2.05383 11.0007C2.05383 8.08667 2.06691 7.74204 2.11922 6.59473C2.16718 5.53031 2.34593 4.95012 2.49416 4.57059C2.69035 4.06455 2.93014 3.69811 3.3138 3.31423C3.69746 2.93034 4.05932 2.69913 4.56941 2.4941C4.95307 2.34578 5.53291 2.16692 6.59234 2.11893C7.73895 2.06659 8.08337 2.0535 10.9957 2.0535C13.908 2.0535 14.2524 2.06659 15.399 2.11893C16.4628 2.16692 17.0427 2.34578 17.422 2.4941C17.9277 2.69041 18.2939 2.93034 18.6776 3.31423C19.0612 3.69811 19.2923 4.06019 19.4972 4.57059C19.6455 4.95448 19.8242 5.53467 19.8722 6.59473C19.9245 7.74204 19.9376 8.08667 19.9376 11.0007C19.9376 13.9148 19.9201 14.2594 19.8722 15.4067Z" fill="white"/>
<path d="M10.9983 5.39844C7.90289 5.39844 5.40039 7.9068 5.40039 10.9997C5.40039 14.097 7.90725 16.601 10.9983 16.601C14.0894 16.601 16.5962 14.0883 16.5962 10.9997C16.5962 7.90244 14.0937 5.39844 10.9983 5.39844ZM10.9983 14.6336C8.99283 14.6336 7.36664 13.0064 7.36664 10.9997C7.36664 8.99304 8.99283 7.36587 10.9983 7.36587C13.0038 7.36587 14.63 8.99304 14.63 10.9997C14.63 13.0064 13.0038 14.6336 10.9983 14.6336Z" fill="white"/>
<path d="M16.8118 6.49047C17.5342 6.49047 18.1198 5.90454 18.1198 5.18176C18.1198 4.45898 17.5342 3.87305 16.8118 3.87305C16.0895 3.87305 15.5039 4.45898 15.5039 5.18176C15.5039 5.90454 16.0895 6.49047 16.8118 6.49047Z" fill="white"/>
</svg>
