<svg width="22" height="20" viewBox="0 0 22 20" fill="none" xmlns="http://www.w3.org/2000/svg">
<path d="M0.5 2.31347C0.5 1.64005 0.736493 1.0845 1.20946 0.6468C1.68243 0.209083 2.2973 -0.00976562 3.05405 -0.00976562C3.7973 -0.00976562 4.39864 0.205709 4.85811 0.636699C5.33107 1.08114 5.56757 1.66025 5.56757 2.37407C5.56757 3.02054 5.33784 3.55924 4.87838 3.99023C4.40541 4.43468 3.78378 4.6569 3.01351 4.6569H2.99324C2.24999 4.6569 1.64866 4.43468 1.18919 3.99023C0.729723 3.54579 0.5 2.98686 0.5 2.31347ZM0.763514 19.9902V6.49529H5.26351V19.9902H0.763514ZM7.75676 19.9902H12.2568V12.4549C12.2568 11.9835 12.3108 11.6199 12.4189 11.364C12.6081 10.9061 12.8953 10.5188 13.2804 10.2024C13.6655 9.88585 14.1486 9.72761 14.7297 9.72761C16.2432 9.72761 17 10.7444 17 12.7781V19.9902H21.5V12.2529C21.5 10.2596 21.027 8.74781 20.0811 7.71751C19.1351 6.6872 17.8851 6.17205 16.3311 6.17205C14.5878 6.17205 13.2297 6.91953 12.2568 8.41448V8.45488H12.2365L12.2568 8.41448V6.49529H7.75676C7.78378 6.92625 7.7973 8.26632 7.7973 10.5155C7.7973 12.7646 7.78378 15.9229 7.75676 19.9902Z" fill="white"/>
</svg>
