<svg width="31" height="30" viewBox="0 0 31 30" fill="none" xmlns="http://www.w3.org/2000/svg">
<g clip-path="url(#clip0_250_18226)">
<path d="M15.4067 8.00656L3.22926 0.0361328C2.33733 0.593042 1.60423 1.37073 1.1009 2.29395C0.597557 3.21717 0.341018 4.25467 0.356097 5.30608V17.8587L15.4067 8.00656Z" fill="#DC463B"/>
<path d="M15.4067 8.00684L0.356069 17.859C0.341342 18.9107 0.598009 19.9485 1.10129 20.8721C1.60457 21.7958 2.33747 22.5741 3.22923 23.1319L7.87989 26.1271L12.0125 28.7859C13.0183 29.4542 14.1991 29.8107 15.4067 29.8107C16.6143 29.8107 17.7951 29.4542 18.8009 28.7859L22.9335 26.1271L27.5812 23.1319C28.4739 22.5749 29.2077 21.7968 29.7116 20.8731C30.2154 19.9493 30.4723 18.9111 30.4573 17.859L15.4067 8.00684Z" fill="#F1993F"/>
<path d="M15.4062 8.00656L30.4569 17.8587V5.30608C30.4719 4.25434 30.2151 3.21654 29.7112 2.29324C29.2073 1.36995 28.4734 0.592465 27.5807 0.0361328L15.4062 8.00656Z" fill="#48A1A9"/>
</g>
<defs>
<clipPath id="clip0_250_18226">
<rect width="30.1025" height="29.7743" fill="white" transform="translate(0.355469 0.0361328)"/>
</clipPath>
</defs>
</svg>
