<svg width="32" height="32" viewBox="0 0 32 32" fill="none" xmlns="http://www.w3.org/2000/svg">
<g clip-path="url(#clip0_595_1109)">
<path d="M31.4204 3.65063L27.6707 5.52563L26.832 3.84863L30.582 1.97363L31.4204 3.65063Z" fill="#4BA1A8"/>
<path d="M30.5811 18.6516L26.8311 16.7766L27.6697 15.0996L31.4194 16.9746L30.5811 18.6516Z" fill="#4BA1A8"/>
<path d="M28.1875 9.375H32V11.25H28.1875V9.375Z" fill="#4BA1A8"/>
<path d="M1.41943 1.97363L5.16943 3.84863L4.33081 5.52563L0.581055 3.65063L1.41943 1.97363Z" fill="#4BA1A8"/>
<path d="M1.41846 18.6516L0.580078 16.9746L4.32983 15.0996L5.16846 16.7766L1.41846 18.6516Z" fill="#4BA1A8"/>
<path d="M0 9.375H3.8125V11.25H0V9.375Z" fill="#4BA1A8"/>
<path d="M13.1875 30.125H18.8125V32H13.1875V30.125Z" fill="#4BA1A8"/>
<path d="M26.3125 10.3125C26.3125 4.62622 21.6863 0 16 0C10.3137 0 5.6875 4.62622 5.6875 10.3125C5.6875 14.1899 7.87573 17.7256 11.3125 19.4851V22.5H9.4375V24.375H11.3125V28.25H20.6875V24.375H22.5625V22.5H20.6875V19.4851C24.1243 17.7256 26.3125 14.1899 26.3125 10.3125ZM18.8125 26.375H13.1875V24.375H18.8125V26.375ZM15.0625 12.1875C15.0625 11.6707 15.4832 11.25 16 11.25C16.5168 11.25 16.9375 11.6707 16.9375 12.1875C16.9375 12.7043 16.5168 13.125 16 13.125C15.4832 13.125 15.0625 12.7043 15.0625 12.1875ZM16.9375 22.5V14.8389C18.0288 14.4517 18.8125 13.4097 18.8125 12.1875C18.8125 10.6367 17.5508 9.375 16 9.375C14.4492 9.375 13.1875 10.6367 13.1875 12.1875C13.1875 13.4097 13.9712 14.4517 15.0625 14.8389V22.5H13.1875V18.2805L12.6267 18.0344C9.55029 16.6838 7.5625 13.6528 7.5625 10.3125C7.5625 5.66016 11.3477 1.875 16 1.875C20.6523 1.875 24.4375 5.66016 24.4375 10.3125C24.4375 13.6528 22.4497 16.6838 19.3733 18.0344L18.8125 18.2805V22.5H16.9375Z" fill="#4BA1A8"/>
</g>
<defs>
<clipPath id="clip0_595_1109">
<rect width="32" height="32" fill="white"/>
</clipPath>
</defs>
</svg>
