<svg width="32" height="32" viewBox="0 0 32 32" fill="none" xmlns="http://www.w3.org/2000/svg">
<path d="M26.9089 5.57547C25.1214 5.38527 23.3622 4.98764 21.6667 4.39061C20.1107 3.84088 18.6183 3.12585 17.2148 2.2578C16.8486 2.03551 16.4284 1.91797 16 1.91797C15.5716 1.91797 15.1514 2.03551 14.7852 2.2578L14.7838 2.25913C13.3807 3.12648 11.8887 3.84105 10.3333 4.39061C8.63824 4.98751 6.87946 5.38515 5.09245 5.57551C4.51842 5.63429 3.98663 5.90401 3.60007 6.33242C3.21351 6.76083 2.99968 7.31745 3 7.89448V14.8216C3.00094 17.3774 3.6849 19.8865 4.98109 22.0893C6.27728 24.292 8.1386 26.1083 10.3724 27.3502L14.8659 29.8475C15.2119 30.0422 15.6023 30.1444 15.9993 30.1444C16.3964 30.1444 16.7867 30.0422 17.1328 29.8475L21.6276 27.3502C23.8614 26.1083 25.7227 24.292 27.0189 22.0893C28.3151 19.8865 28.9991 17.3774 29 14.8216V7.89448C29.0004 7.31764 28.7868 6.76117 28.4005 6.33277C28.0142 5.90438 27.4827 5.63454 26.9089 5.57547ZM21.306 13.5781L16.306 18.9115C16.0686 19.1652 15.7413 19.3162 15.3942 19.332C15.047 19.3478 14.7074 19.2272 14.4479 18.9961L11.4479 16.3294C11.1837 16.0946 11.0237 15.7645 11.0029 15.4116C10.9822 15.0588 11.1024 14.7121 11.3372 14.4479C11.5721 14.1838 11.9022 14.0237 12.2551 14.0029C12.6079 13.9822 12.9546 14.1024 13.2187 14.3373L15.2487 16.1406L19.3607 11.7552C19.4855 11.6223 19.6361 11.5163 19.8034 11.4437C19.9707 11.3712 20.151 11.3336 20.3333 11.3333C20.5933 11.3334 20.8475 11.4095 21.0647 11.5522C21.282 11.695 21.4528 11.8981 21.5561 12.1366C21.6595 12.3751 21.6909 12.6386 21.6464 12.8947C21.602 13.1508 21.4837 13.3884 21.306 13.5781Z" fill="#DC463B"/>
</svg>
