<svg width="13" height="15" viewBox="0 0 13 15" fill="none" xmlns="http://www.w3.org/2000/svg">
<g style="mix-blend-mode:luminosity">
<path d="M6.50217 9.70739C6.19562 9.70739 5.93812 9.44989 5.93812 9.14947V2.97557L5.98717 2.06206L5.60092 2.50962L4.74258 3.42927C4.64448 3.53962 4.49734 3.5948 4.35633 3.5948C4.08043 3.5948 3.85359 3.39248 3.85359 3.10432C3.85359 2.95718 3.9149 2.84682 4.01912 2.7426L6.07913 0.76229C6.22014 0.615146 6.35503 0.566098 6.50217 0.566098C6.65544 0.566098 6.79033 0.615146 6.93134 0.76229L8.99135 2.7426C9.09557 2.84682 9.15075 2.95718 9.15075 3.10432C9.15075 3.39248 8.92391 3.5948 8.64801 3.5948C8.507 3.5948 8.36599 3.53962 8.26789 3.42927L7.40342 2.50962L7.0233 2.06206L7.07235 2.97557V9.14947C7.07235 9.44989 6.81485 9.70739 6.50217 9.70739ZM2.97686 14.5938C1.65256 14.5938 0.965894 13.9132 0.965894 12.6073V6.56833C0.965894 5.26243 1.65256 4.58189 2.97686 4.58189H4.75484V5.78356H3.05043C2.48025 5.78356 2.16757 6.07785 2.16757 6.67256V12.5031C2.16757 13.0978 2.48025 13.3921 3.05043 13.3921H9.96004C10.5241 13.3921 10.8429 13.0978 10.8429 12.5031V6.67256C10.8429 6.07785 10.5241 5.78356 9.96004 5.78356H8.25563V4.58189H10.0336C11.3579 4.58189 12.0446 5.26243 12.0446 6.56833V12.6073C12.0446 13.9132 11.3579 14.5938 10.0336 14.5938H2.97686Z" fill="#797979"/>
</g>
</svg>
